<?xml version="1.0" encoding="UTF-8" standalone="no"?>
<!-- Created with Inkscape (http://www.inkscape.org/) -->

<svg
   xmlns:dc="http://purl.org/dc/elements/1.1/"
   xmlns:cc="http://creativecommons.org/ns#"
   xmlns:rdf="http://www.w3.org/1999/02/22-rdf-syntax-ns#"
   xmlns:svg="http://www.w3.org/2000/svg"
   xmlns="http://www.w3.org/2000/svg"
   xmlns:sodipodi="http://sodipodi.sourceforge.net/DTD/sodipodi-0.dtd"
   xmlns:inkscape="http://www.inkscape.org/namespaces/inkscape"
   width="320"
   height="576"
   viewBox="0 0 320 576.00001"
   id="svg3492"
   version="1.1"
   inkscape:version="0.91 r13725"
   sodipodi:docname="grid.svg">
  <defs
     id="defs3494" />
  <sodipodi:namedview
     id="base"
     pagecolor="#ffffff"
     bordercolor="#666666"
     borderopacity="1.0"
     inkscape:pageopacity="0.0"
     inkscape:pageshadow="2"
     inkscape:zoom="1.4"
     inkscape:cx="184.59642"
     inkscape:cy="151.17275"
     inkscape:document-units="px"
     inkscape:current-layer="layer1"
     showgrid="false"
     units="px"
     fit-margin-top="0"
     fit-margin-left="0"
     fit-margin-right="0"
     fit-margin-bottom="0"
     inkscape:window-width="1366"
     inkscape:window-height="744"
     inkscape:window-x="0"
     inkscape:window-y="0"
     inkscape:window-maximized="1" />
  <metadata
     id="metadata3497">
    <rdf:RDF>
      <cc:Work
         rdf:about="">
        <dc:format>image/svg+xml</dc:format>
        <dc:type
           rdf:resource="http://purl.org/dc/dcmitype/StillImage" />
        <dc:title></dc:title>
      </cc:Work>
    </rdf:RDF>
  </metadata>
  <g
     inkscape:label="Layer 1"
     inkscape:groupmode="layer"
     id="layer1"
     transform="translate(-351.42857,158.49493)">
    <path
       d="m 383.42857,-158.49493 0,575.99999 m 32,-575.99999 0,575.99999 m 32,-575.99999 0,575.99999 m 32,-575.99999 0,575.99999 m 32,-575.99999 0,575.99999 m 32,-575.99999 0,575.99999 m 32,-575.99999 0,575.99999 m 32,-575.99999 0,575.99999 m 32,-575.99999 0,575.99999 m -288,-543.99999 320,0 m -320,31.999997 320,0 m -320,32 320,0 m -320,32 320,0 m -320,31.9999999 320,0 m -320,32.0000001 320,0 m -320,32 320,0 m -320,32 320,0 m -320,32.000003 320,0 m -320,32 320,0 m -320,32 320,0 m -320,32 320,0 m -320,32 320,0 m -320,32 320,0 m -320,32 320,0 m -320,32 320,0 m -320,31.99999 320,0"
       style="display:inline;fill:none;fill-opacity:1;fill-rule:evenodd;stroke:#27556c;stroke-width:0.25;stroke-linecap:butt;stroke-linejoin:miter;stroke-miterlimit:4;stroke-dasharray:none;stroke-opacity:1"
       id="path4931"
       inkscape:connector-curvature="0"
       sodipodi:nodetypes="cccccccccccccccccccccccccccccccccccccccccccccccccccc"
       inkscape:export-xdpi="23.370001"
       inkscape:export-ydpi="23.370001" />
  </g>
</svg>
